inDegrees=no
num_controls=7
num_derivatives=13
num_iterations=107
num_multipliers=7
num_parameters=0
num_slacks=7
num_states=26
objective=5.108570
objective_accelerations=0.641781
objective_balance=0.012698
objective_effort=0.163787
objective_height=4.239770
objective_ligament=0.050534
solver_duration=1182.216559
status=Solve_Succeeded
success=true
DataType=double
version=3
OpenSimVersion=4.4-2022-07-23-0e9fedc
endheader
time	/jointset/ground_pelvis/pelvis_tilt/value	/jointset/ground_pelvis/pelvis_tx/value	/jointset/ground_pelvis/pelvis_ty/value	/jointset/hip_l/hip_flexion_l/value	/jointset/hip_l/hip_adduction_l/value	/jointset/hip_l/hip_rotation_l/value	/jointset/back/lumbar_extension/value	/jointset/patellofemoral_l/patellar_flexion_l/value	/jointset/knee_l/knee_flexion_l/value	/jointset/knee_l/knee_adduction_l/value	/jointset/knee_l/knee_rotation_l/value	/jointset/ankle_l/ankle_angle_l/value	/jointset/subtalar_l/subtalar_angle_l/value	/jointset/ground_pelvis/pelvis_tilt/speed	/jointset/ground_pelvis/pelvis_tx/speed	/jointset/ground_pelvis/pelvis_ty/speed	/jointset/hip_l/hip_flexion_l/speed	/jointset/hip_l/hip_adduction_l/speed	/jointset/hip_l/hip_rotation_l/speed	/jointset/back/lumbar_extension/speed	/jointset/patellofemoral_l/patellar_flexion_l/speed	/jointset/knee_l/knee_flexion_l/speed	/jointset/knee_l/knee_adduction_l/speed	/jointset/knee_l/knee_rotation_l/speed	/jointset/ankle_l/ankle_angle_l/speed	/jointset/subtalar_l/subtalar_angle_l/speed	/forceset/tau_hip_flexion_l	/forceset/tau_hip_adduction_l	/forceset/tau_hip_rotation_l	/forceset/tau_knee_flexion_l	/forceset/tau_ankle_angle_l	/forceset/tau_subtalar_angle_l	/forceset/tau_lumbar_extension	lambda_cid13_p0	lambda_cid13_p1	lambda_cid13_p2	lambda_cid13_p3	lambda_cid13_p4	lambda_cid13_p5	lambda_cid14_p0	/jointset/ground_pelvis/pelvis_tilt/accel	/jointset/ground_pelvis/pelvis_tx/accel	/jointset/ground_pelvis/pelvis_ty/accel	/jointset/hip_l/hip_flexion_l/accel	/jointset/hip_l/hip_adduction_l/accel	/jointset/hip_l/hip_rotation_l/accel	/jointset/back/lumbar_extension/accel	/jointset/patellofemoral_l/patellar_flexion_l/accel	/jointset/knee_l/knee_flexion_l/accel	/jointset/knee_l/knee_adduction_l/accel	/jointset/knee_l/knee_rotation_l/accel	/jointset/ankle_l/ankle_angle_l/accel	/jointset/subtalar_l/subtalar_angle_l/accel	gamma_cid13_p0	gamma_cid13_p1	gamma_cid13_p2	gamma_cid13_p3	gamma_cid13_p4	gamma_cid13_p5	gamma_cid14_p0
0	0.04832022436188232	0.1079620395810458	0.9028674318560242	0.1266917050730164	-0.370064611530435	-0.223083591765034	-0.2144974744115991	0.2051547269257218	0.2051547269256735	-0.1745303435757928	-0.1583656519123119	0.09024399430361882	0.07897637619867288	0	0	0	0	0	0	0	0	0	0	0	0	0	0.1098920603264717	-0.07997439541351195	-0.008535813980129647	-0.2436004082123109	0.1739021953490889	-0.06527712932554766	-0.04378913932227752	26.33824089346035	24.37142880002711	-4.889756909900496	-19.50636460770097	-439.9416059757212	-68.7011612854122	-26.1858153471653	-2.930094472612999	-0.9580638429116106	-0.7923769209130892	10.53608824926662	-0.1494210149052257	3.039528851317669	-3.488893109177659	10.13928936224704	10.13928936224751	2.160611792719153	-0.9070303593804384	3.466857035182286	0.8413411815551569	-3.343339909692162e-10	4.806455301344115e-07	-7.512282744913256e-08	4.296763803483389e-08	3.021663464400566e-09	1.90325241863775e-07	5.758777976946981e-08
0.01	0.04818092532733714	0.1079145312689485	0.90282901332309	0.1272035111398203	-0.3700710956747921	-0.2229250616853293	-0.2146756900642231	0.2056490175306866	0.2056490175308107	-0.17442396518898	-0.158399652888059	0.09041322005346361	0.07901819429106552	-0.02774522679857266	-0.009488460710200864	-0.007660407788435459	0.1019500556736227	-0.00127767509781591	0.03159231227471893	-0.03538994558374672	0.09840138851119264	0.09840138851117168	0.02118957892399073	-0.006722944683230548	0.0336493361309105	0.008328360793216515	0.1065405808313902	-0.08703063194964299	-0.007640857270643641	-0.2387638644768672	0.1643933108589014	-0.05624544829006874	-0.04122534140382272	23.76177942548267	20.59151629708485	-3.934669258064777	-17.88553055698019	-440.6060514110528	-76.20531092603069	-26.18591885037707	-2.679550492443409	-0.9422483367366772	-0.7493772836811087	9.962789178449103	-0.1141281810527238	3.202052947882168	-3.526067541180786	9.622042201227368	9.622042201224559	2.085288737995003	-0.5433624549454817	3.284612675401809	0.823228298049981	-9.347916161326961e-09	7.47275786679752e-07	-7.422420475339957e-08	7.821250590704585e-08	-1.610319295779034e-07	2.326191398398521e-07	9.312958701669696e-08
0.02	0.04776761128299423	0.1077725361194143	0.9027146897970991	0.1287224827537363	-0.3700897940548892	-0.2224540143764032	-0.2152002096243274	0.2071136177422387	0.2071136177422263	-0.1741082594533598	-0.1584985704964835	0.09091306731928615	0.0791422249453595	-0.05480300195571447	-0.01889736748738914	-0.0151809986112921	0.2014331094287481	-0.002442847148951298	0.0625034458427938	-0.06926078149572286	0.194061921249291	0.1940619212492793	0.04186546967823665	-0.0129833266525451	0.06612430319608206	0.0164425123802412	0.103189101336256	-0.09408686848581575	-0.006745900564203193	-0.2339273207408266	0.1548844263688123	-0.04721376725456764	-0.03866154348549043	21.23071039813904	16.81399263384018	-2.991772355946383	-16.32437767558396	-440.4711323976364	-83.54460465092181	-26.18594279674791	-2.792604144326289	-0.9421530563096594	-0.7644135277973108	10.04268786556737	-0.1269204055691536	2.903293109988855	-3.185071174823343	9.5911182076284	9.591118207634919	2.057874158770175	-0.8145178165973795	3.231983222033895	0.7984993403165784	-1.83614983316847e-08	1.013906043225092e-06	-7.332558205766658e-08	1.134573737792578e-07	-3.250855226202073e-07	2.749130378159291e-07	1.286713942639241e-07
0.03	0.04708665243787757	0.1075370237185123	0.9025255834372146	0.1312245214195178	-0.3701196130692241	-0.2216785560643638	-0.2160555360953781	0.2095217097900392	0.2095217097898695	-0.1735884278061477	-0.1586590193555966	0.09173212191291696	0.07934643343474405	-0.08128296560425519	-0.02817281968344009	-0.02263769404436471	0.2985425478886106	-0.003510809502963463	0.09246022651388029	-0.1015637283545095	0.2870919349810521	0.2870919349810491	0.06197483953630011	-0.01902413718048756	0.09750466733797138	0.02436091578227777	0.1000832128660667	-0.08996636426708791	-0.006003358706499078	-0.2304493218313025	0.1503610284421755	-0.04870319956892771	-0.03628551608799042	19.68731902997409	17.62191060072315	-2.995866525395151	-15.27874681071682	-440.4739403761657	-81.25591068864729	-26.18549027190516	-2.559816019526177	-0.9153745176114004	-0.7359763327327665	9.48026045218028	-0.09535340230884913	3.022714251836476	-3.216788786806653	9.089234081348867	9.089234081345506	1.968730750888494	-0.4865521734715564	3.063800305228243	0.7826192247223328	-2.56660183536837e-08	1.129292210053532e-06	-6.218517752213996e-08	1.335640421391658e-07	-4.477836840203986e-07	2.790723771888039e-07	1.451250353636954e-07
0.04	0.04614406924737856	0.1072097301523755	0.9022619743666674	0.1346846921931182	-0.3701598355575224	-0.2206073612044311	-0.2172266685040954	0.2128461602000966	0.2128461602000902	-0.172871249990224	-0.1588774142207264	0.09285952760694464	0.07962864763506419	-0.1071278710291448	-0.03725360053432939	-0.03008154074380102	0.3930595309877912	-0.004523541936686512	0.121650755431679	-0.1324219690292365	0.377333593728796	0.3773335937287585	0.08133470345695672	-0.02457252781158867	0.1277945232783421	0.03204365456733025	0.09697732439660922	-0.08584586004818563	-0.005260816847615889	-0.2269713229213308	0.1458376305158275	-0.05019263188302948	-0.03390948869020211	18.18539674757315	18.43489967532016	-3.014857777371867	-14.28373451195885	-439.7362839426257	-78.8051873942396	-26.18381722012766	-2.66559249959553	-0.9032187872779309	-0.7618437810700179	9.524196793431194	-0.1158744215111351	2.750042759331231	-2.896129938011219	9.033447210825173	9.03344721082304	1.907972971289196	-0.7160338372292142	3.013881581729596	0.7513664169197689	-3.293529998087118e-08	1.241559942042448e-06	-5.083360222702998e-08	1.533585826740777e-07	-5.696291561083814e-07	2.824454370028496e-07	1.611851060274367e-07
0.05	0.04494577831635475	0.1067925341465326	0.9019237572003166	0.1390780482312406	-0.3702098433944427	-0.2192495791413949	-0.2186986997657947	0.2170599769452909	0.2170599769452161	-0.1719639838498191	-0.1591503822252692	0.09428455005263585	0.07998667396800167	-0.1324170336920592	-0.04615795961543311	-0.03757438230730821	0.4851845404122947	-0.005457376836287369	0.1497752251282	-0.1617500314647471	0.4649715361222708	0.4649715361221556	0.09999899759197803	-0.02992441022238271	0.1570246602685084	0.03953576701739037	0.09337719360885696	-0.08397552294822733	-0.004313597222648085	-0.223277730823857	0.1399809647489709	-0.04908773281660935	-0.03123562747697231	16.39193588810911	18.13312797147441	-2.811474548489417	-13.12416708552912	-439.2088972111767	-78.62226646641028	-26.18011491842769	-2.443574168585092	-0.8798674856939305	-0.7449927214770676	8.992584153951046	-0.07921773119115158	2.824130502623551	-2.916006618845687	8.560202510383343	8.560202510372966	1.827935512408387	-0.4303025485045767	2.849820888960279	0.7440676249945931	-3.511899600582748e-08	1.275176341396665e-06	-7.233416659444837e-08	1.631531852997082e-07	-6.338895918266377e-07	3.05320034607816e-07	1.702084718116966e-07
0.06	0.04349799655490068	0.1062871299464432	0.901510213942835	0.1443798405910121	-0.3702686055217663	-0.2176144560958408	-0.2204569840963507	0.2221364200657001	0.2221364200656942	-0.1708736191925288	-0.1594739764751361	0.0959963220944863	0.08041880821862916	-0.1570260371127676	-0.05489523938363943	-0.04514675896995219	0.5747467953164176	-0.006274400016157985	0.1771189519371547	-0.1896725828011752	0.5498588687867488	0.5498588687865715	0.117954406839005	-0.03469777685318381	0.1851444425106838	0.04686523810527394	0.08977706282138186	-0.08210518584825992	-0.003366377597056246	-0.2195841387262902	0.1341242989821859	-0.04798283375016642	-0.02856176626357728	14.63625878386872	17.83475438211961	-2.620073035896115	-12.00778011617415	-438.0114989308194	-78.29217819596154	-26.17325893980667	-2.529560651153778	-0.8698029246990487	-0.7777508008973422	9.011645889355277	-0.0925120775648688	2.593894181817881	-2.615027718194525	8.483325265026023	8.483325265026998	1.766195993690766	-0.6003306812307306	2.791810632130854	0.7188381444845039	-3.708856211068984e-08	1.305481105692578e-06	-9.521797894765743e-08	1.725267379081057e-07	-6.957253944345895e-07	3.290157495934526e-07	1.789355552852415e-07
0.07000000000000001	0.04180694179342211	0.1056952228662777	0.9010203371157179	0.1505655180843451	-0.3703349254121605	-0.215711287503616	-0.2224869969787378	0.2280490040930448	0.2280490040930107	-0.169607008171123	-0.1598440604359979	0.09798408704768315	0.08092359761539444	-0.1810739807700064	-0.06345236530046817	-0.05285371742064168	0.6619599325537333	-0.006967627870864265	0.2033744301396729	-0.2161059703176685	0.6322041731990565	0.6322041731989585	0.1352407524247692	-0.03922214373269239	0.2122297441140589	0.05407212065543539	0.08611501136316312	-0.07962583834513157	-0.002393508054097978	-0.2164649448375335	0.1290254881549911	-0.04727886891124183	-0.02586426044749538	13.08798023374924	17.70712902942529	-2.493513303502644	-11.06250215304	-437.0706310780113	-77.59665804101972	-26.16209714870505	-2.325755249045481	-0.8435611054908427	-0.7710749067367317	8.511835641909519	-0.05461057421298231	2.620380022619713	-2.623890763956368	8.042032614506425	8.04203261451749	1.691008611935415	-0.3640032544858349	2.640107870665816	0.7183419870446006	-3.601325298523666e-08	1.220674409538201e-06	-1.293935331209169e-07	1.688637152572742e-07	-7.117922867909343e-07	3.395652656564133e-07	1.748013658280502e-07
